**ABCDEFGHIJKLMNOPQRSTUVWXYZabcdefghijklmnopqrstuvwxyz**************************
**PARASOLID !"#$%&'()*+,-./:;<=>?@[\]^_`{|}~0123456789**************************
**PART1;
MC=AMD64;
MC_MODEL=Intel64 Family 6 Model 23 Stepping 10, GenuineIntel;
MC_ID=unknown;
OS=Windows_NT;
OS_RELEASE=unknown;
FRU=Parasolid Version 29.0, build 195, 12- 2-2016;
APPL=SOLIDWORKS 2017-2017109;
SITE=;
USER=unknown;
FORMAT=text;
GUISE=transmit;
KEY=HGR15R Bolt Cap;
FILE=HGR15R Bolt Cap.x_t;
DATE=Mon Apr 02 07:42:17 2018;
**PART2;
SCH=SCH_2900195_28101;
USFLD_SIZE=0;
**PART3;
**END_OF_HEADER*****************************************************************
T51 : TRANSMIT FILE created by modeller version 290019523 SCH_2900195_28101_1300
6203 0 12 33 CCCCCCI4 mesh1006 0 I8 polyline1008 0 CCCCCCCDI5 owner1040 0 CCCCCC
I13 boundary_mesh1006 0 I17 boundary_polyline1008 0 CCCA16 index_map_offset0 0 1
 dA9 index_map82 0 A17 node_id_index_map82 0 A20 schema_embedding_map82 0 A5 chi
ld12 0 A14 lowest_node_id0 0 1 dZ1 278 2 3 0 0 0 0 0 0 1e3 1e-8 0 4 0 1 0 1 1 5
 6 7 0 0 0 8 9 0 0 0 0 0 0 0 81 255 2 2 117 10 1 0 0 0 0 11 0 70 11 CI9 list_typ
e0 0 1 uI10 notransmit0 0 1 lCCCDCCDI12 finger_index0 0 1 dI12 finger_block1012
 0 CZ3 0 4 T1 0 0 3 20 1 12 12 13 255 5 29 0 1 0 13 0 0 14 0 54 255 6 105 0 15 1
6 0 0 +0 .001 0 0 1 0 .00365 1e-4 0 0 1 31 255 7 75 0 9 17 0 0 +0 .0011 0 0 1 0
 0 0 1 .00365 19 8 CCCCCCCA5 owner12 0 Z8 7 0 1 14 0 18 V0 16 255 9 72 0 ?19 0 2
0 7 0 0 1 17 255 19 0 21 19 19 0 22 9 0 0 +16 20 66 0 ?23 9 24 17 0 0 1 17 23 0
 25 23 23 0 26 20 0 0 +16 24 60 0 ?27 20 28 29 0 0 1 31 17 69 0 20 29 7 0 -0 0 0
 0 1 0 0 0 1 .00365 31 29 63 0 24 30 17 0 +0 1e-4 0 0 1 0 0 0 1 .00375 31 30 57
 0 28 0 29 0 -0 .001 0 0 1 0 0 0 1 .00375 16 28 54 0 ?31 24 0 30 0 0 1 17 31 0 3
2 31 31 0 33 28 0 0 +15 255 32 55 0 31 13 0 17 33 0 34 33 33 0 31 28 0 0 -15 34
 99 0 33 15 35 14 255 15 98 36 ?0 37 34 5 6 +0 0 0 37 18 15 35 100 0 22 15 0 17
 22 0 35 22 22 0 19 9 0 0 -81 1 36 274 38 15 39 0 0 40 41 14 37 85 40 ?15 42 43
 5 16 +0 0 15 42 18 13 18 8 0 0 0 0 0 0 8 13 14 13 25 44 ?45 0 46 5 47 -0 0 45 0
 18 81 1 44 276 38 13 48 0 40 49 50 14 45 1 49 ?42 13 21 5 51 +0 0 42 13 18 15 4
6 61 0 27 13 32 51 255 47 28 0 13 52 16 0 -0 .0011 0 0 -1 0 .00375 0 0 -1 50 255
 52 22 0 42 51 47 0 +0 0 0 0 1 0 0 0 1 54 16 92 0 37 47 6 0 +0 1e-4 0 0 1 0 .003
65 1e-4 0 0 1 14 42 16 53 ?37 45 25 5 52 -0 0 37 45 18 50 51 2 0 45 0 52 0 +0 .0
011 0 0 1 0 0 0 1 81 1 53 278 38 42 54 0 49 0 55 15 25 67 0 23 42 0 80 255 1 38
 56 57 9000 1 1 1 1 1 1 1 1 0 FFFFTFTFFFFFFF1 81 1 54 259 58 42 0 53 59 60 61 81
 1 49 277 38 45 59 0 44 53 62 82 255 1 55 2145976452 81 1 59 258 58 45 0 49 48 5
4 63 82 1 62 2144272516 80 1 58 0 64 8001 0 0 0 0 3 5 0 0 0 FFFFTFTFFFFFFF2 81 1
 48 257 58 13 0 44 0 59 65 83 255 3 63 0 .784313725490196 0 83 3 65 0 .784313725
490196 0 79 255 15 64 SDL/TYSA_COLOUR81 1 60 260 58 37 0 40 54 39 66 83 3 61 0 .
784313725490196 0 81 1 40 275 38 37 60 0 36 44 67 81 1 39 261 58 15 0 36 60 0 68
 83 3 66 0 .784313725490196 0 83 3 68 0 .784313725490196 0 82 1 67 -1836711804 7
9 14 57 SWEntUnchanged17 27 0 46 27 27 0 69 24 0 0 +17 69 0 70 69 69 0 27 24 0 0
 -15 70 87 0 69 37 0 15 21 73 0 19 45 0 82 1 50 2146238596 15 43 86 0 26 37 70 1
7 26 0 43 26 26 0 23 20 0 0 -82 1 41 -1835466620 19 14 30 0 1 0 8 5 S0 74 4 CI16
 index_map_offset0 0 1 dCCZ20 12 3 0 0 53 2 39 0 0 0 0 0 0 0 0 0 0 0 0 0 0 0 0 0
 80 2 10 71 72 8004 0 0 0 0 3 5 0 0 0 FFTFFFFFFFFFFF2 3 83 1 11 952 79 16 72 SDL
/TYSA_DENSITY1 0 
