**ABCDEFGHIJKLMNOPQRSTUVWXYZabcdefghijklmnopqrstuvwxyz**************************
**PARASOLID !"#$%&'()*+,-./:;<=>?@[\]^_`{|}~0123456789**************************
**PART1;
MC=AMD64;
MC_MODEL=Intel64 Family 6 Model 23 Stepping 10, GenuineIntel;
MC_ID=unknown;
OS=Windows_NT;
OS_RELEASE=unknown;
FRU=Parasolid Version 29.0, build 195, 12- 2-2016;
APPL=SOLIDWORKS 2017-2017109;
SITE=;
USER=unknown;
FORMAT=text;
GUISE=transmit;
KEY=HGx15CA Tiny Red;
FILE=HGx15CA Tiny Red.x_t;
DATE=Mon Apr 02 07:40:38 2018;
**PART2;
SCH=SCH_2900195_28101;
USFLD_SIZE=0;
**PART3;
**END_OF_HEADER*****************************************************************
T51 : TRANSMIT FILE created by modeller version 290019523 SCH_2900195_28101_1300
6203 0 10 19 CCCCCCCI4 mesh1006 0 I8 polyline1008 0 CCCCCCCCCCZ1 5 2 3 0 0 0 0 0
 0 0 1e3 1e-8 0 0 0 1 0 1 4 81 255 2 2 5 5 1 0 0 0 0 0 0 70 11 CI9 list_type0 0
 1 uI10 notransmit0 0 1 lCCCDCCDI12 finger_index0 0 1 dI12 finger_block1012 0 CZ
3 0 4 T1 0 0 1 20 1 6 6 11 255 4 3 0 1 7 8 1 9 0 0 0 12 33 CCCCCCI4 mesh1006 0 I
8 polyline1008 0 CCCCCCCDI5 owner1040 0 CCCCCCI13 boundary_mesh1006 0 I17 bounda
ry_polyline1008 0 CCCA16 index_map_offset0 0 1 dA9 index_map82 0 A17 node_id_ind
ex_map82 0 A20 schema_embedding_map82 0 A5 child12 0 A14 lowest_node_id0 0 1 dZ7
 626 10 11 0 0 0 0 0 0 1e3 1e-8 4 12 0 1 0 1 1 13 14 15 16 0 0 17 18 19 0 0 0 0
 0 0 100 255 8 4 4 0 0 1 0 0 0 1 0 0 0 1 0 0 0 1 0 ?11 9 1 0 1 12 20 1 0 4 0 0 1
2 12 626 21 22 0 0 0 0 0 0 1e3 1e-8 9 23 7 1 0 1 1 24 25 26 27 0 0 28 29 30 0 0
 0 0 0 0 100 20 2 9 0 0 1 0 0 0 1 0 0 0 1 0 0 0 1 0 ?81 1 21 626 31 12 32 0 0 0
 0 70 22 0 4 T12 0 0 4 20 1 33 33 13 255 24 174 0 12 0 34 0 0 35 0 51 255 25 165
 0 34 36 0 0 +-.00615 .00492071067811866 -.0277 0 0 1 500000000000011e-19 1 0 0
 30 255 26 173 0 37 38 0 0 +-.0061 .00492071067811866 -.0277 0 0 1 29 255 27 126
 0 39 40 0 -.00618755749223973 .00488770409125084 .0277 19 8 CCCCCCCA5 owner12 0
 Z28 52 0 12 35 0 41 V0 16 255 29 134 0 ?42 0 43 44 0 0 12 18 255 30 49 0 45 0 4
6 47 ?12 17 255 45 0 48 49 50 30 42 29 0 51 -18 46 46 0 52 30 53 54 ?12 29 47 51
 0 30 54 55 -.00618755749223973 .00488770409125084 -.0277 29 54 48 0 46 56 47 -.
00657812257285704 .00473404590418504 -.0277 29 55 133 0 57 47 58 -.0061 .0049207
1067811866 .0277 18 57 116 0 59 60 0 55 ?12 29 58 132 0 60 55 61 -.0061 .00518 .
0277 18 60 115 0 62 63 57 58 ?12 29 61 131 0 63 58 64 -.00622 .0053 .0277 18 63
 114 0 65 66 60 61 ?12 29 64 130 0 66 61 67 -.00698 .0053 .0277 18 66 113 0 68 6
9 63 64 ?12 29 67 129 0 69 64 70 -.0071 .00518 .0277 18 69 112 0 71 72 66 67 ?12
 29 70 128 0 72 67 40 -.0071 .00458284271247462 .0277 18 72 111 0 73 74 69 70 ?1
2 29 40 127 0 74 70 27 -.00657812257285704 .00473404590418504 .0277 18 74 110 0
 75 39 72 40 ?12 17 75 0 76 77 78 74 52 43 0 79 +18 39 109 0 42 80 74 27 ?12 17
 42 0 81 82 83 39 45 29 0 50 +18 80 28 0 84 85 39 86 ?12 17 84 0 87 88 89 80 59
 37 0 90 -18 85 31 0 91 92 80 93 ?12 29 86 30 0 80 0 93 -.0061 .0049207106781186
6 -.0277 29 93 33 0 85 86 94 -.0061 .00518 -.0277 29 94 36 0 92 93 95 -.00622 .0
053 -.0277 18 92 34 0 96 97 85 94 ?12 29 95 39 0 97 94 98 -.00698 .0053 -.0277 1
8 97 37 0 99 100 92 95 ?12 29 98 42 0 100 95 56 -.0071 .00518 -.0277 18 100 40 0
 101 53 97 98 ?12 29 56 45 0 53 98 54 -.0071 .00458284271247462 -.0277 18 53 43
 0 102 46 100 56 ?12 17 102 0 76 78 77 53 73 103 0 104 -15 255 76 144 0 77 105 0
 17 78 0 76 75 102 46 104 106 0 107 +17 77 0 76 102 75 72 79 108 0 109 -17 73 0
 110 111 112 72 102 103 0 77 +16 103 136 0 ?73 43 113 114 0 0 12 17 104 0 115 11
6 107 53 78 106 0 112 -15 115 3 0 51 117 0 17 116 0 115 118 104 100 112 119 0 12
0 -17 107 0 115 104 51 46 83 121 0 0 -16 106 22 0 ?78 121 119 122 0 0 12 17 112
 0 110 73 101 53 116 119 0 0 +15 110 146 0 111 123 0 17 101 0 110 112 111 100 71
 113 0 116 -16 119 19 0 ?112 106 124 125 0 0 12 16 124 16 0 ?120 119 126 127 0 0
 12 30 125 20 0 119 127 122 0 +-.0071 .00458284271247462 -.0277 -145248455659435
6e-30 -1 0 31 255 127 17 0 124 128 125 0 +-.00698 .00518 -.0277 0 0 1 1 0 0 12e-
5 31 122 23 0 106 125 129 0 +-.00681715728752539 .00458284271247462 -.0277 0 0 1
 -1 0 0 .0002828427124746135 32 255 129 26 0 121 122 130 131 +-.0063558426295199
 .00477493092469122 -.0277 0 0 -1 .707106781186541 -.707106781186554 0 35e-5 2e-
4 16 121 25 0 ?83 37 106 129 0 0 12 31 130 125 0 132 129 133 0 +-.00615 .0049207
1067811866 .0277 0 0 1 -1 0 0 500000000000011e-19 141 255 131 134 131 131 129 67
 255 134 158 0 135 136 137 0 +129 0 0 1 ?14 255 135 143 138 ?105 34 81 24 134 +0
 0 105 34 41 50 255 136 117 0 139 140 134 0 +-.0063558426295199 .004774930924691
22 .0277 0 0 -1 -1 0 0 51 137 159 0 105 134 141 0 +-.00681715728752539 .00458284
271247462 -.0277 0 0 1 .0002828427124746135 1 0 0 14 105 145 142 ?123 135 76 24
 137 +0 0 123 135 41 50 141 160 0 123 137 143 0 +-.0071 .00458284271247462 -.027
7 -1 1452484556594356e-30 0 -1452484556594356e-30 -1 0 14 123 147 144 ?145 105 1
10 24 141 +0 0 145 105 41 51 143 161 0 145 141 146 0 +-.00698 .00518 -.0277 0 0
 1 12e-5 1 0 0 14 145 149 147 ?148 123 149 24 143 +0 0 148 123 41 50 146 162 0 1
48 143 150 0 +-.00698 .0053 -.0277 1141265444721584e-30 1 0 -1 1141265444721584e
-30 0 14 148 151 151 ?152 145 153 24 146 +0 0 152 145 41 51 150 163 0 152 146 36
 0 +-.00622 .00518 -.0277 0 0 1 12e-5 1 0 0 14 152 153 154 ?155 148 156 24 150 +
0 0 155 148 41 50 36 164 0 155 150 25 0 +-.0061 .00518 -.0277 1 66903004851494e-
28 0 -66903004851494e-28 1 0 14 155 155 157 ?117 152 87 24 36 +0 0 117 152 41 81
 1 157 622 158 155 159 0 154 160 161 14 117 1 160 ?139 155 115 24 140 +0 0 139 1
55 41 15 87 154 0 89 155 0 13 41 53 0 0 0 0 0 0 28 34 14 34 157 162 ?135 0 48 24
 25 +0 0 135 0 41 81 1 162 624 158 34 163 0 160 164 165 15 48 156 0 50 34 0 17 5
0 0 48 45 59 39 166 132 0 167 -17 59 0 48 50 49 57 84 37 0 89 +17 166 0 168 169
 167 57 50 132 0 0 +16 132 105 0 ?166 170 0 130 0 0 12 17 167 0 168 166 79 39 82
 171 0 0 +15 168 76 0 166 139 0 17 79 0 168 167 109 74 77 108 0 82 +17 82 0 81 5
2 42 74 167 171 0 0 -16 171 77 0 ?167 172 108 173 0 0 12 16 172 4 0 ?49 174 171
 175 0 0 12 16 108 81 0 ?79 171 176 177 0 0 12 32 173 118 0 171 177 44 0 +-.0063
558426295199 .00477493092469122 .0277 0 0 -1 .707106781186541 -.707106781186554
 0 35e-5 2e-4 31 177 119 0 108 178 173 0 +-.00681715728752539 .00458284271247462
 .0277 0 0 1 -1 0 0 .0002828427124746135 30 44 166 0 29 173 179 0 +-.00618755749
223973 .00488770409125084 -.0277 0 0 1 30 179 167 0 43 44 114 0 +-.0065781225728
5704 .00473404590418504 -.0277 0 0 1 16 43 135 0 ?75 29 103 179 0 0 12 30 114 16
8 0 103 179 180 0 +-.0071 .00458284271247462 -.0277 0 0 1 30 180 169 0 113 114 1
81 0 +-.0071 .00518 -.0277 0 0 1 16 113 137 0 ?71 103 182 180 0 0 12 30 181 170
 0 182 180 183 0 +-.00698 .0053 -.0277 0 0 1 16 182 138 0 ?68 113 184 181 0 0 12
 30 183 171 0 184 181 38 0 +-.00622 .0053 -.0277 0 0 1 16 184 139 0 ?65 182 185
 183 0 0 12 30 38 172 0 185 183 26 0 +-.0061 .00518 -.0277 0 0 1 16 185 140 0 ?6
2 184 37 38 0 0 12 17 62 0 87 89 88 60 91 185 0 186 +16 37 141 0 ?59 185 121 26
 0 0 12 17 89 0 87 84 62 57 169 170 0 166 -17 88 0 87 62 84 85 90 174 0 0 +17 91
 0 156 187 186 85 62 185 0 188 -17 186 0 156 91 65 60 189 190 0 169 -15 156 152
 0 186 152 0 17 65 0 156 186 187 63 96 184 0 191 +17 189 0 168 192 169 63 186 19
0 0 0 +16 190 97 0 ?189 193 170 194 0 0 12 17 169 0 168 189 166 60 89 170 0 0 +1
6 170 101 0 ?169 190 132 133 0 0 12 30 133 124 0 170 130 194 0 +-.0061 .00518 .0
277 -66903004851494e-28 1 0 31 194 123 0 190 133 195 0 +-.00622 .00518 .0277 0 0
 1 1 0 0 12e-5 30 195 122 0 193 194 196 0 +-.00698 .0053 .0277 -1 11412654447215
84e-30 0 16 193 93 0 ?192 197 190 195 0 0 12 31 196 121 0 197 195 178 0 +-.00698
 .00518 .0277 0 0 1 1 0 0 12e-5 16 197 89 0 ?198 176 193 196 0 0 12 30 178 120 0
 176 196 177 0 +-.0071 .00458284271247462 .0277 -1452484556594356e-30 -1 0 16 17
6 85 0 ?109 108 197 178 0 0 12 17 109 0 168 79 198 72 111 176 0 0 +17 198 0 168
 109 192 69 199 197 0 0 +17 111 0 110 101 73 69 109 176 0 198 -17 192 0 168 198
 189 66 191 193 0 0 +17 199 0 149 99 71 66 198 197 0 192 -15 149 148 0 199 145 0
 17 99 0 149 120 199 97 68 182 0 118 -17 71 0 149 199 120 69 101 113 0 111 +17 1
20 0 149 71 99 100 118 124 0 0 +17 118 0 115 200 116 97 120 124 0 201 -17 200 0
 115 188 118 92 201 126 0 187 -17 201 0 153 68 96 97 200 126 0 0 +15 153 150 0 1
91 148 0 17 68 0 153 191 201 66 99 182 0 199 +17 96 0 153 201 191 92 65 184 0 20
0 -16 126 13 0 ?201 124 202 128 0 0 12 16 202 10 0 ?187 126 174 203 0 0 12 30 12
8 14 0 126 203 127 0 +-.00698 .0053 -.0277 -1 1141265444721584e-30 0 31 203 11 0
 202 204 128 0 +-.00622 .00518 -.0277 0 0 1 1 0 0 12e-5 30 204 8 0 174 175 203 0
 +-.0061 .00518 -.0277 -66903004851494e-28 1 0 16 174 7 0 ?88 202 172 204 0 0 12
 31 175 5 0 172 0 204 0 +-.00615 .00492071067811866 -.0277 0 0 1 -1 0 0 50000000
0000011e-19 17 187 0 156 65 91 92 188 202 0 0 +17 188 0 115 90 200 85 187 202 0
 88 -17 90 0 115 51 188 80 88 174 0 49 -17 51 0 115 107 90 30 49 172 0 83 -17 49
 0 48 59 45 80 51 172 0 0 +17 83 0 81 42 52 30 107 121 0 0 +15 81 142 0 82 135 0
 17 52 0 81 83 82 46 75 43 0 78 -17 191 0 153 96 68 63 192 193 0 189 -14 139 75
 164 ?0 117 168 24 136 -0 0 0 117 41 81 1 164 625 158 139 205 0 162 0 206 80 255
 1 158 207 208 9000 1 1 1 1 1 1 1 1 0 FFFFTFTFFFFFFF1 81 1 205 593 209 139 0 164
 210 0 211 82 255 1 206 284426764 80 1 209 0 212 8001 0 0 0 0 3 5 0 0 0 FFFFTFTF
FFFFFF2 81 1 210 592 209 117 0 160 159 205 213 83 255 3 211 1 0 0 81 1 160 623 1
58 117 210 0 157 162 214 81 1 159 591 209 155 0 157 215 210 216 83 3 213 1 0 0 8
1 1 215 590 209 152 0 154 217 159 218 83 3 216 1 0 0 81 1 154 621 158 152 215 0
 151 157 219 81 1 217 589 209 148 0 151 220 215 221 83 3 218 1 0 0 81 1 151 620
 158 148 217 0 147 154 222 81 1 220 588 209 145 0 147 223 217 224 83 3 221 1 0 0
 81 1 147 619 158 145 220 0 144 151 225 81 1 223 587 209 123 0 144 226 220 227 8
3 3 224 1 0 0 81 1 144 618 158 123 223 0 142 147 228 81 1 226 586 209 105 0 142
 229 223 230 83 3 227 1 0 0 81 1 142 617 158 105 226 0 138 144 231 81 1 229 585
 209 135 0 138 163 226 232 83 3 230 1 0 0 81 1 138 616 158 135 229 0 0 142 233 8
1 1 163 584 209 34 0 162 0 229 234 83 3 232 1 0 0 83 3 234 1 0 0 82 1 233 286130
700 82 1 231 286261772 82 1 228 286392844 82 1 225 286523916 82 1 222 286654988
 82 1 219 286786060 82 1 214 274072076 79 255 15 212 SDL/TYSA_COLOUR79 14 208 SW
EntUnchanged82 1 165 287048204 50 140 2 0 117 0 136 0 +-.0063558426295199 .00477
493092469122 -.0277 0 0 -1 -1 0 0 82 1 161 286917132 19 35 175 0 12 0 28 24 S0 7
4 4 CI16 index_map_offset0 0 1 dCCZ20 33 4 0 0 164 32 205 21 0 0 0 0 0 0 0 0 0 0
 0 0 0 0 0 0 81 2 32 233 235 12 0 21 0 0 236 0 80 2 235 237 238 8004 0 0 0 0 3 5
 0 0 0 FFTFFFFFFFFFFF2 3 83 1 236 1260 79 16 238 SDL/TYSA_DENSITY80 1 31 239 240
 8017 0 0 0 0 0 0 0 0 0 TTTTTTTTTTTTTF3 79 13 240 SDL/TYSA_NAME81 1 10 626 31 7
 241 0 0 0 0 70 11 0 4 T7 0 0 4 20 1 242 242 13 13 174 0 7 0 243 0 0 244 0 51 14
 165 0 243 245 0 0 +.00698 .00518 -.0277 0 0 1 12e-5 1 0 0 30 15 173 0 246 247 0
 0 +.00698 .0053 -.0277 0 0 1 29 16 126 0 248 249 0 .0071 .00518 .0277 19 17 52
 0 7 244 0 250 V0 16 18 134 0 ?251 0 252 253 0 0 7 18 19 49 0 254 0 255 256 ?7 1
7 254 0 257 258 259 19 251 18 0 260 -18 255 46 0 261 19 262 263 ?7 29 256 51 0 1
9 263 264 .0071 .00518 -.0277 29 263 48 0 255 265 256 .0071 .00458284271247462 -
.0277 29 264 133 0 266 256 267 .00698 .0053 .0277 18 266 116 0 268 269 0 264 ?7
 29 267 132 0 269 264 270 .00622 .0053 .0277 18 269 115 0 271 272 266 267 ?7 29
 270 131 0 272 267 273 .0061 .00518 .0277 18 272 114 0 274 275 269 270 ?7 29 273
 130 0 275 270 276 .0061 .00492071067811866 .0277 18 275 113 0 277 278 272 273 ?
7 29 276 129 0 278 273 279 .00618755749223973 .00488770409125084 .0277 18 278 11
2 0 280 281 275 276 ?7 29 279 128 0 281 276 249 .00657812257285704 .004734045904
18504 .0277 18 281 111 0 282 283 278 279 ?7 29 249 127 0 283 279 16 .0071 .00458
284271247462 .0277 18 283 110 0 284 248 281 249 ?7 17 284 0 285 286 287 283 261
 252 0 288 +18 248 109 0 251 289 283 16 ?7 17 251 0 290 291 292 248 254 18 0 259
 +18 289 28 0 293 294 248 295 ?7 17 293 0 296 297 298 289 268 246 0 299 -18 294
 31 0 300 301 289 302 ?7 29 295 30 0 289 0 302 .00698 .0053 -.0277 29 302 33 0 2
94 295 303 .00622 .0053 -.0277 29 303 36 0 301 302 304 .0061 .00518 -.0277 18 30
1 34 0 305 306 294 303 ?7 29 304 39 0 306 303 307 .0061 .00492071067811866 -.027
7 18 306 37 0 308 309 301 304 ?7 29 307 42 0 309 304 265 .00618755749223973 .004
88770409125084 -.0277 18 309 40 0 310 262 306 307 ?7 29 265 45 0 262 307 263 .00
657812257285704 .00473404590418504 -.0277 18 262 43 0 311 255 309 265 ?7 17 311
 0 285 287 286 262 282 312 0 313 -15 285 144 0 286 314 0 17 287 0 285 284 311 25
5 313 315 0 316 +17 286 0 285 311 284 281 288 317 0 318 -17 282 0 319 320 321 28
1 311 312 0 286 +16 312 136 0 ?282 252 322 323 0 0 7 17 313 0 324 325 316 262 28
7 315 0 321 -15 324 3 0 260 326 0 17 325 0 324 327 313 309 321 328 0 329 -17 316
 0 324 313 260 255 292 330 0 0 -16 315 22 0 ?287 330 328 331 0 0 7 17 321 0 319
 282 310 262 325 328 0 0 +15 319 146 0 320 332 0 17 310 0 319 321 320 309 280 32
2 0 325 -16 328 19 0 ?321 315 333 334 0 0 7 16 333 16 0 ?329 328 335 336 0 0 7 3
2 334 20 0 328 336 331 337 +.0063558426295199 .00477493092469122 -.0277 0 0 -1 -
.707106781186541 -.707106781186554 0 35e-5 2e-4 31 336 17 0 333 338 334 0 +.0061
5 .00492071067811866 -.0277 0 0 1 1 0 0 500000000000011e-19 31 331 23 0 315 334
 339 0 +.00681715728752539 .00458284271247462 -.0277 0 0 1 1 0 0 .00028284271247
46135 141 337 340 337 337 334 67 340 160 0 332 341 342 0 +334 0 0 1 ?14 332 147
 343 ?344 314 319 13 340 +0 0 344 314 250 51 341 159 0 314 345 340 0 +.006817157
28752539 .00458284271247462 -.0277 0 0 1 .0002828427124746135 1 0 0 51 342 161 0
 344 340 346 0 +.00615 .00492071067811866 -.0277 0 0 1 500000000000011e-19 1 0 0
 14 344 149 347 ?348 332 349 13 342 +0 0 348 332 250 50 346 162 0 348 342 350 0
 +.0061 .00518 -.0277 -1 66903004851494e-28 0 -66903004851494e-28 -1 0 14 348 15
1 351 ?352 344 353 13 346 +0 0 352 344 250 51 350 163 0 352 346 245 0 +.00622 .0
0518 -.0277 0 0 1 12e-5 1 0 0 14 352 153 354 ?355 348 356 13 350 +0 0 355 348 25
0 50 245 164 0 355 350 14 0 +.00698 .0053 -.0277 -1141265444721584e-30 1 0 -1 -1
141265444721584e-30 0 14 355 155 357 ?326 352 296 13 245 +0 0 326 352 250 81 1 3
57 620 158 355 358 0 354 359 360 14 326 1 359 ?361 355 324 13 362 -0 0 361 355 2
50 15 296 154 0 298 355 0 13 250 53 0 0 0 0 0 0 17 243 14 243 157 363 ?364 0 257
 13 14 +0 0 364 0 250 81 1 363 622 158 243 365 0 359 366 367 14 364 143 366 ?314
 243 290 13 345 +0 0 314 243 250 15 257 156 0 259 243 0 17 259 0 257 254 268 248
 368 369 0 370 -17 268 0 257 259 258 266 293 246 0 298 +17 368 0 371 372 370 266
 259 369 0 0 +16 369 105 0 ?368 373 0 374 0 0 7 17 370 0 371 368 288 248 291 375
 0 0 +15 371 76 0 368 361 0 17 288 0 371 370 318 283 286 317 0 291 +17 291 0 290
 261 251 283 370 375 0 0 -16 375 77 0 ?370 376 317 377 0 0 7 16 376 4 0 ?258 378
 375 379 0 0 7 16 317 81 0 ?288 375 380 381 0 0 7 30 377 118 0 375 381 253 0 +.0
071 .00458284271247462 .0277 -1452484556594356e-30 1 0 31 381 119 0 317 382 377
 0 +.00681715728752539 .00458284271247462 .0277 0 0 1 1 0 0 .0002828427124746135
 30 253 166 0 18 377 383 0 +.0071 .00518 -.0277 0 0 1 30 383 167 0 252 253 323 0
 +.0071 .00458284271247462 -.0277 0 0 1 16 252 135 0 ?284 18 312 383 0 0 7 30 32
3 168 0 312 383 384 0 +.00657812257285704 .00473404590418504 -.0277 0 0 1 30 384
 169 0 322 323 385 0 +.00618755749223973 .00488770409125084 -.0277 0 0 1 16 322
 137 0 ?280 312 386 384 0 0 7 30 385 170 0 386 384 387 0 +.0061 .004920710678118
66 -.0277 0 0 1 16 386 138 0 ?277 322 388 385 0 0 7 30 387 171 0 388 385 247 0 +
.0061 .00518 -.0277 0 0 1 16 388 139 0 ?274 386 389 387 0 0 7 30 247 172 0 389 3
87 15 0 +.00622 .0053 -.0277 0 0 1 16 389 140 0 ?271 388 246 247 0 0 7 17 271 0
 296 298 297 269 300 389 0 390 +16 246 141 0 ?268 389 330 15 0 0 7 16 330 25 0 ?
292 246 315 339 0 0 7 17 292 0 290 251 261 19 316 330 0 0 +30 339 26 0 330 331 3
74 0 +.0071 .00458284271247462 -.0277 -1452484556594356e-30 1 0 31 374 125 0 369
 339 391 0 +.00698 .00518 .0277 0 0 1 -1 0 0 12e-5 30 391 124 0 373 374 392 0 +.
00698 .0053 .0277 -1 -1141265444721584e-30 0 16 373 101 0 ?372 393 369 391 0 0 7
 31 392 123 0 393 391 394 0 +.00622 .00518 .0277 0 0 1 -1 0 0 12e-5 16 393 97 0
 ?395 396 373 392 0 0 7 30 394 122 0 396 392 397 0 +.0061 .00518 .0277 -66903004
851494e-28 -1 0 16 396 93 0 ?398 399 393 394 0 0 7 31 397 121 0 399 394 382 0 +.
00615 .00492071067811866 .0277 0 0 1 1 0 0 500000000000011e-19 16 399 89 0 ?400
 380 396 397 0 0 7 32 382 120 0 380 397 381 0 +.0063558426295199 .00477493092469
122 .0277 0 0 -1 -.707106781186541 -.707106781186554 0 35e-5 2e-4 16 380 85 0 ?3
18 317 399 382 0 0 7 17 318 0 371 288 400 281 320 380 0 0 +17 400 0 371 318 398
 278 401 399 0 0 +17 320 0 319 310 282 278 318 380 0 400 -17 398 0 371 400 395 2
75 402 396 0 0 +17 401 0 349 308 280 275 400 399 0 398 -15 349 148 0 401 344 0 1
7 308 0 349 329 401 306 277 386 0 327 -17 280 0 349 401 329 278 310 322 0 320 +1
7 329 0 349 280 308 309 327 333 0 0 +17 327 0 324 403 325 306 329 333 0 404 -17
 403 0 324 405 327 301 404 335 0 406 -17 404 0 353 277 305 306 403 335 0 0 +15 3
53 150 0 402 348 0 17 277 0 353 402 404 275 308 386 0 401 +17 305 0 353 404 402
 301 274 388 0 403 -16 335 13 0 ?404 333 407 338 0 0 7 16 407 10 0 ?406 335 378
 408 0 0 7 30 338 14 0 335 408 336 0 +.0061 .00518 -.0277 -66903004851494e-28 -1
 0 31 408 11 0 407 409 338 0 +.00622 .00518 -.0277 0 0 1 -1 0 0 12e-5 30 409 8 0
 378 379 408 0 +.00698 .0053 -.0277 -1 -1141265444721584e-30 0 16 378 7 0 ?297 4
07 376 409 0 0 7 31 379 5 0 376 0 409 0 +.00698 .00518 -.0277 0 0 1 -1 0 0 12e-5
 17 297 0 296 271 293 294 299 378 0 0 +17 299 0 324 260 405 289 297 378 0 258 -1
7 260 0 324 316 299 19 258 376 0 292 -17 405 0 324 299 403 294 406 407 0 297 -17
 258 0 257 268 254 289 260 376 0 0 +17 406 0 356 274 300 301 405 407 0 0 +15 356
 152 0 390 352 0 17 274 0 356 390 406 272 305 388 0 402 +17 300 0 356 406 390 29
4 271 389 0 405 -17 390 0 356 300 274 269 395 393 0 372 -17 395 0 371 398 372 27
2 390 393 0 0 +17 372 0 371 395 368 269 298 373 0 0 +17 298 0 296 293 271 266 37
2 373 0 368 -17 402 0 353 305 277 272 398 396 0 395 -15 290 142 0 291 364 0 17 2
61 0 290 292 291 255 284 252 0 287 -14 361 75 410 ?0 326 371 13 411 +0 0 0 326 2
50 81 1 410 624 158 361 412 0 366 413 414 50 411 117 0 361 362 345 0 +.006355842
6295199 .00477493092469122 .0277 0 0 1 1 0 0 50 362 2 0 326 0 411 0 +.0063558426
295199 .00477493092469122 -.0277 0 0 1 1 0 0 50 345 158 0 364 411 341 0 +.0071 .
00458284271247462 -.0277 1 1452484556594356e-30 0 -1452484556594356e-30 1 0 81 1
 412 593 209 361 0 410 415 0 416 81 1 366 623 158 364 417 0 363 410 418 81 1 413
 625 158 314 419 0 410 0 420 82 1 414 304546316 14 314 145 413 ?332 364 285 13 3
41 +0 0 332 364 250 81 1 419 586 209 314 0 413 417 421 422 82 1 420 306381324 81
 1 417 585 209 364 0 366 365 419 423 81 1 421 587 209 332 0 343 419 424 425 83 3
 422 1 0 0 81 1 343 616 158 332 421 0 0 347 426 81 1 424 588 209 344 0 347 421 4
27 428 83 3 425 1 0 0 81 1 347 617 158 344 424 0 343 351 429 81 1 427 589 209 34
8 0 351 424 430 431 83 3 428 1 0 0 81 1 351 618 158 348 427 0 347 354 432 81 1 4
30 590 209 352 0 354 427 358 433 83 3 431 1 0 0 81 1 354 619 158 352 430 0 351 3
57 434 81 1 358 591 209 355 0 357 430 415 435 83 3 433 1 0 0 81 1 415 592 209 32
6 0 359 358 412 436 83 3 435 1 0 0 81 1 359 621 158 326 415 0 357 363 437 83 3 4
36 1 0 0 82 1 437 294191628 82 1 434 306905612 82 1 432 306774540 82 1 429 30664
3468 82 1 426 306512396 81 1 365 584 209 243 0 363 0 417 438 83 3 423 1 0 0 83 3
 438 1 0 0 82 1 418 306250252 83 3 416 1 0 0 82 1 367 307167756 82 1 360 3070366
84 19 244 175 0 7 0 17 13 S0 74 20 242 4 0 0 413 241 412 10 0 0 0 0 0 0 0 0 0 0
 0 0 0 0 0 0 81 2 241 233 235 7 0 10 0 0 439 0 83 1 439 1260 74 20 6 1 0 0 2 0 0
 0 0 0 0 0 0 0 0 0 0 0 0 0 0 0 0 0 80 2 5 440 441 9000 0 0 0 0 3 5 0 0 0 TFFFFFF
FFFFFFF9 1 79 18 441 MULTI_BODY_ID_20011 0 
