**ABCDEFGHIJKLMNOPQRSTUVWXYZabcdefghijklmnopqrstuvwxyz**************************
**PARASOLID !"#$%&'()*+,-./:;<=>?@[\]^_`{|}~0123456789**************************
**PART1;
MC=AMD64;
MC_MODEL=Intel64 Family 6 Model 23 Stepping 10, GenuineIntel;
MC_ID=unknown;
OS=Windows_NT;
OS_RELEASE=unknown;
FRU=Parasolid Version 29.0, build 195, 12- 2-2016;
APPL=SOLIDWORKS 2017-2017109;
SITE=;
USER=unknown;
FORMAT=text;
GUISE=transmit;
KEY=HGx15CA Retainer;
FILE=HGx15CA Retainer.x_t;
DATE=Mon Apr 02 07:41:20 2018;
**PART2;
SCH=SCH_2900195_28101;
USFLD_SIZE=0;
**PART3;
**END_OF_HEADER*****************************************************************
T51 : TRANSMIT FILE created by modeller version 290019523 SCH_2900195_28101_1300
6203 0 10 19 CCCCCCCI4 mesh1006 0 I8 polyline1008 0 CCCCCCCCCCZ1 5 2 3 0 0 0 0 0
 0 0 1e3 1e-8 0 0 0 1 0 1 4 81 255 2 2 5 5 1 0 0 0 0 0 0 70 11 CI9 list_type0 0
 1 uI10 notransmit0 0 1 lCCCDCCDI12 finger_index0 0 1 dI12 finger_block1012 0 CZ
3 0 4 T1 0 0 1 20 1 6 6 11 255 4 3 0 1 7 8 1 9 0 0 0 12 33 CCCCCCI4 mesh1006 0 I
8 polyline1008 0 CCCCCCCDI5 owner1040 0 CCCCCCI13 boundary_mesh1006 0 I17 bounda
ry_polyline1008 0 CCCA16 index_map_offset0 0 1 dA9 index_map82 0 A17 node_id_ind
ex_map82 0 A20 schema_embedding_map82 0 A5 child12 0 A14 lowest_node_id0 0 1 dZ7
 951 10 11 0 0 0 0 0 0 1e3 1e-8 4 12 0 1 0 1 1 13 14 15 16 0 0 17 18 19 0 0 0 0
 0 0 100 255 8 4 4 0 0 1 0 0 0 1 0 0 0 1 0 0 0 1 0 ?11 9 1 0 1 12 20 1 0 4 0 0 1
2 12 951 21 22 0 0 0 0 0 0 1e3 1e-8 9 23 7 1 0 1 1 24 25 26 27 0 0 28 29 30 0 0
 0 0 0 0 100 20 2 9 0 0 1 0 0 0 1 0 0 0 1 0 0 0 1 0 ?81 1 21 951 31 12 32 0 0 0
 0 70 22 0 4 T12 0 0 4 20 1 33 33 13 255 24 274 0 12 0 34 0 0 35 0 51 255 25 260
 0 34 36 0 0 +.01285 .00815 -.0277 0 0 1 15e-5 1 0 0 30 255 26 273 0 37 38 0 0 +
.01285 .0083 -.0277 0 0 1 29 255 27 196 0 39 40 0 .013 .00815 .0277 19 8 CCCCCCC
A5 owner12 0 Z28 82 0 12 35 0 41 V0 16 255 29 209 0 ?42 0 43 44 0 0 12 18 255 30
 79 0 45 0 46 47 ?12 17 255 45 0 48 49 50 30 42 29 0 51 -18 46 76 0 52 30 53 54
 ?12 29 47 81 0 30 54 55 .013 .00815 -.0277 29 54 78 0 46 56 47 .013 .0043 -.027
7 29 55 208 0 57 47 58 .01285 .0083 .0277 18 57 181 0 59 60 0 55 ?12 29 58 207 0
 60 55 61 .00495 .0083 .0277 18 60 180 0 62 63 57 58 ?12 29 61 206 0 63 58 64 .0
0485 .0082 .0277 18 63 179 0 65 66 60 61 ?12 29 64 205 0 66 61 67 .00485 .006415
68542494923 .0277 18 66 178 0 68 69 63 64 ?12 29 67 204 0 69 64 70 .004937867965
64404 .00620355339059327 .0277 18 69 177 0 71 72 66 67 ?12 29 70 203 0 72 67 73
 .0061 .00504142135623731 .0277 18 72 176 0 74 75 69 70 ?12 29 73 202 0 75 70 76
 .0061 .0052 .0277 18 75 175 0 77 78 72 73 ?12 29 76 201 0 78 73 79 .0062 .0053
 .0277 18 78 174 0 80 81 75 76 ?12 29 79 200 0 81 76 82 .007 .0053 .0277 18 81 1
73 0 83 84 78 79 ?12 29 82 199 0 84 79 85 .0071 .0052 .0277 18 84 172 0 86 87 81
 82 ?12 29 85 198 0 87 82 40 .0071 .0043 .0277 18 87 171 0 88 89 84 85 ?12 29 40
 197 0 89 85 27 .013 .0043 .0277 18 89 170 0 90 39 87 40 ?12 17 90 0 91 92 93 89
 52 43 0 94 +18 39 169 0 42 95 89 27 ?12 17 42 0 96 97 98 39 45 29 0 50 +18 95 4
3 0 99 100 39 101 ?12 17 99 0 102 103 104 95 59 37 0 105 -18 100 46 0 106 107 95
 108 ?12 29 101 45 0 95 0 108 .01285 .0083 -.0277 29 108 48 0 100 101 109 .00495
 .0083 -.0277 29 109 51 0 107 108 110 .00485 .0082 -.0277 18 107 49 0 111 112 10
0 109 ?12 29 110 54 0 112 109 113 .00485 .00641568542494923 -.0277 18 112 52 0 1
14 115 107 110 ?12 29 113 57 0 115 110 116 .00493786796564404 .00620355339059327
 -.0277 18 115 55 0 117 118 112 113 ?12 29 116 60 0 118 113 119 .0061 .005041421
35623731 -.0277 18 118 58 0 120 121 115 116 ?12 29 119 63 0 121 116 122 .0061 .0
052 -.0277 18 121 61 0 123 124 118 119 ?12 29 122 66 0 124 119 125 .0062 .0053 -
.0277 18 124 64 0 126 127 121 122 ?12 29 125 69 0 127 122 128 .007 .0053 -.0277
 18 127 67 0 129 130 124 125 ?12 29 128 72 0 130 125 56 .0071 .0052 -.0277 18 13
0 70 0 131 53 127 128 ?12 29 56 75 0 53 128 54 .0071 .0043 -.0277 18 53 73 0 132
 46 130 56 ?12 17 132 0 91 93 92 53 88 133 0 134 -15 255 91 224 0 92 135 0 17 93
 0 91 90 132 46 134 136 0 137 +17 92 0 91 132 90 87 94 138 0 139 -17 88 0 140 14
1 142 87 132 133 0 92 +16 133 211 0 ?88 43 143 144 0 0 12 17 134 0 145 146 137 5
3 93 136 0 142 -15 145 3 0 51 147 0 17 146 0 145 148 134 130 142 149 0 150 -17 1
37 0 145 134 51 46 98 151 0 0 -16 136 37 0 ?93 151 149 152 0 0 12 17 142 0 140 8
8 131 53 146 149 0 0 +15 140 226 0 141 153 0 17 131 0 140 142 141 130 86 143 0 1
46 -16 149 34 0 ?142 136 154 155 0 0 12 16 154 31 0 ?150 149 156 157 0 0 12 30 1
55 35 0 149 157 152 0 +.0071 .0043 -.0277 0 -1 0 31 255 157 32 0 154 158 155 0 +
.007 .0052 -.0277 0 0 -1 -1 0 0 1e-4 30 152 38 0 136 155 159 0 +.0071 .0043 -.02
77 1 0 0 30 159 41 0 151 152 160 0 +.013 .00815 -.0277 -901155052455485e-30 1 0
 16 151 40 0 ?98 37 136 159 0 0 12 31 160 195 0 161 159 162 0 +.01285 .00815 .02
77 0 0 1 -1 0 0 15e-5 16 161 165 0 ?163 164 0 160 0 0 12 30 162 194 0 164 160 16
5 0 +.00495 .0083 .0277 -1 2195852501236465e-31 0 16 164 161 0 ?166 167 161 162
 0 0 12 31 165 193 0 167 162 168 0 +.00495 .0082 .0277 0 0 1 -1 0 0 1e-4 16 167
 157 0 ?169 170 164 165 0 0 12 30 168 192 0 170 165 171 0 +.00485 .0082 .0277 48
6103599733093e-30 -1 0 16 170 153 0 ?172 173 167 168 0 0 12 31 171 191 0 173 168
 174 0 +.00515 .00641568542494924 .0277 0 0 1 1 0 0 3e-4 16 173 149 0 ?175 176 1
70 171 0 0 12 30 174 190 0 176 171 177 0 +.00493786796564404 .00620355339059327
 .0277 .707106781186548 -.707106781186547 0 16 176 145 0 ?178 179 173 174 0 0 12
 30 177 189 0 179 174 180 0 +.0061 .0052 .0277 546959992473125e-29 1 0 16 179 14
1 0 ?181 182 176 177 0 0 12 31 180 188 0 182 177 183 0 +.0062 .0052 .0277 0 0 -1
 -1 0 0 1e-4 16 182 137 0 ?184 185 179 180 0 0 12 30 183 187 0 185 180 186 0 +.0
07 .0053 .0277 1 0 0 16 185 133 0 ?187 188 182 183 0 0 12 31 186 186 0 188 183 1
89 0 +.007 .0052 .0277 0 0 -1 -1 0 0 1e-4 16 188 129 0 ?190 191 185 186 0 0 12 3
0 189 185 0 191 186 192 0 +.0071 .0043 .0277 0 -1 0 16 191 125 0 ?139 138 188 18
9 0 0 12 30 192 184 0 138 189 193 0 +.0071 .0043 .0277 1 0 0 16 138 121 0 ?94 19
4 191 192 0 0 12 30 193 183 0 194 192 44 0 +.013 .00815 .0277 -901155052455485e-
30 1 0 16 194 117 0 ?195 196 138 193 0 0 12 30 44 261 0 29 193 197 0 +.013 .0081
5 -.0277 0 0 1 30 197 262 0 43 44 144 0 +.013 .0043 -.0277 0 0 1 16 43 210 0 ?90
 29 133 197 0 0 12 30 144 263 0 133 197 198 0 +.0071 .0043 -.0277 0 0 1 30 198 2
64 0 143 144 199 0 +.0071 .0052 -.0277 0 0 1 16 143 212 0 ?86 133 200 198 0 0 12
 30 199 265 0 200 198 201 0 +.007 .0053 -.0277 0 0 1 16 200 213 0 ?83 143 202 19
9 0 0 12 30 201 266 0 202 199 203 0 +.0062 .0053 -.0277 0 0 1 16 202 214 0 ?80 2
00 204 201 0 0 12 30 203 267 0 204 201 205 0 +.0061 .0052 -.0277 0 0 1 16 204 21
5 0 ?77 202 206 203 0 0 12 30 205 268 0 206 203 207 0 +.0061 .00504142135623731
 -.0277 0 0 1 16 206 216 0 ?74 204 208 205 0 0 12 30 207 269 0 208 205 209 0 +.0
0493786796564404 .00620355339059327 -.0277 0 0 1 16 208 217 0 ?71 206 210 207 0
 0 12 30 209 270 0 210 207 211 0 +.00485 .00641568542494923 -.0277 0 0 1 16 210
 218 0 ?68 208 212 209 0 0 12 30 211 271 0 212 209 38 0 +.00485 .0082 -.0277 0 0
 1 16 212 219 0 ?65 210 213 211 0 0 12 30 38 272 0 213 211 26 0 +.00495 .0083 -.
0277 0 0 1 16 213 220 0 ?62 212 37 38 0 0 12 17 62 0 102 104 103 60 106 213 0 21
4 +16 37 221 0 ?59 213 151 26 0 0 12 17 59 0 48 50 49 57 99 37 0 104 +15 48 246
 0 50 34 0 17 50 0 48 45 59 39 163 161 0 195 -17 49 0 48 59 45 95 51 196 0 0 +17
 104 0 102 99 62 57 166 164 0 163 -15 102 244 0 104 215 0 17 166 0 216 169 163 6
0 104 164 0 0 +17 163 0 216 166 195 57 50 161 0 0 +15 216 116 0 163 217 0 17 195
 0 216 163 94 39 97 194 0 0 +17 94 0 216 195 139 89 92 138 0 97 +17 97 0 96 52 4
2 89 195 194 0 0 -15 96 222 0 97 218 0 17 52 0 96 98 97 46 90 43 0 93 -17 98 0 9
6 42 52 30 137 151 0 0 +14 255 218 223 219 ?135 34 96 24 220 +0 0 135 34 41 81 1
 219 936 221 218 222 0 0 223 224 14 135 225 223 ?153 218 91 24 225 +0 0 153 218
 41 14 34 247 226 ?218 0 48 24 25 +0 0 218 0 41 50 255 220 248 0 218 227 225 0 +
.013 .00815 -.0277 1 901155052455485e-30 0 -901155052455485e-30 1 0 13 41 83 0 0
 0 0 0 0 28 34 50 227 182 0 217 228 220 0 +.01285 .00815 .0277 0 0 -1 -1 0 0 50
 225 249 0 135 220 229 0 +.0071 .0043 -.0277 0 -1 0 0 0 -1 50 229 250 0 153 225
 230 0 +.0071 .0043 -.0277 -1 0 0 0 0 1 14 153 227 231 ?232 135 140 24 229 +0 0
 232 135 41 51 230 251 0 232 229 233 0 -.007 .0052 -.0277 0 0 1 1e-4 1 0 0 14 23
2 229 234 ?235 153 236 24 230 +0 0 235 153 41 50 233 252 0 235 230 237 0 +.007 .
0053 -.0277 0 -1 0 0 0 -1 14 235 231 238 ?239 232 240 24 233 +0 0 239 232 41 51
 237 253 0 239 233 241 0 -.0062 .0052 -.0277 0 0 1 1e-4 1 0 0 14 239 233 242 ?24
3 235 244 24 237 +0 0 243 235 41 50 241 254 0 243 237 245 0 +.0061 .0052 -.0277
 1 -546959992473125e-29 0 546959992473125e-29 1 0 14 243 235 246 ?247 239 248 24
 241 +0 0 247 239 41 50 245 255 0 247 241 249 0 +.00493786796564404 .00620355339
059327 -.0277 -.707106781186547 -.707106781186548 0 .707106781186548 -.707106781
186547 0 14 247 237 250 ?251 243 252 24 245 +0 0 251 243 41 51 249 256 0 251 245
 253 0 +.00515 .00641568542494924 -.0277 0 0 1 3e-4 1 0 0 14 251 239 254 ?255 24
7 256 24 249 +0 0 255 247 41 50 253 257 0 255 249 257 0 +.00485 .0082 -.0277 -1
 -486103599733093e-30 0 486103599733093e-30 -1 0 14 255 241 258 ?259 251 260 24
 253 +0 0 259 251 41 51 257 258 0 259 253 36 0 +.00495 .0082 -.0277 0 0 1 1e-4 1
 0 0 14 259 243 261 ?215 255 262 24 257 +0 0 215 255 41 50 36 259 0 215 257 25 0
 +.00495 .0083 -.0277 2195852501236465e-31 1 0 -1 2195852501236465e-31 0 14 215
 245 263 ?147 259 102 24 36 +0 0 147 259 41 81 1 263 948 221 215 264 0 261 265 2
66 14 147 1 265 ?217 215 145 24 228 +0 0 217 215 41 81 1 265 949 221 147 267 0 2
63 268 269 14 217 115 268 ?0 147 216 24 227 -0 0 0 147 41 50 228 2 0 147 0 227 0
 +.01285 .00815 -.0277 0 0 -1 -1 0 0 81 1 268 950 221 217 270 0 265 0 271 80 255
 1 221 272 273 9000 1 1 1 1 1 1 1 1 0 FFFFTFTFFFFFFF1 81 1 270 903 274 217 0 268
 267 0 275 82 255 1 271 1209270795 80 1 274 0 276 8001 0 0 0 0 3 5 0 0 0 FFFFTFT
FFFFFFF2 81 1 267 902 274 147 0 265 264 270 277 83 255 3 275 .1019607843137254 .
1019607843137254 .1019607843137254 81 1 264 901 274 215 0 263 278 267 279 83 3 2
77 .1019607843137254 .1019607843137254 .1019607843137254 81 1 278 900 274 259 0
 261 280 264 281 83 3 279 .1019607843137254 .1019607843137254 .1019607843137254
 81 1 261 947 221 259 278 0 258 263 282 81 1 280 899 274 255 0 258 283 278 284 8
3 3 281 .1019607843137254 .1019607843137254 .1019607843137254 81 1 258 946 221 2
55 280 0 254 261 285 81 1 283 898 274 251 0 254 286 280 287 83 3 284 .1019607843
137254 .1019607843137254 .1019607843137254 81 1 254 945 221 251 283 0 250 258 28
8 81 1 286 897 274 247 0 250 289 283 290 83 3 287 .1019607843137254 .10196078431
37254 .1019607843137254 81 1 250 944 221 247 286 0 246 254 291 81 1 289 896 274
 243 0 246 292 286 293 83 3 290 .1019607843137254 .1019607843137254 .10196078431
37254 81 1 246 943 221 243 289 0 242 250 294 81 1 292 895 274 239 0 242 295 289
 296 83 3 293 .1019607843137254 .1019607843137254 .1019607843137254 81 1 242 942
 221 239 292 0 238 246 297 81 1 295 894 274 235 0 238 298 292 299 83 3 296 .1019
607843137254 .1019607843137254 .1019607843137254 81 1 238 941 221 235 295 0 234
 242 300 81 1 298 893 274 232 0 234 301 295 302 83 3 299 .1019607843137254 .1019
607843137254 .1019607843137254 81 1 234 940 221 232 298 0 231 238 303 81 1 301 8
92 274 153 0 231 304 298 305 83 3 302 .1019607843137254 .1019607843137254 .10196
07843137254 81 1 231 939 221 153 301 0 226 234 306 81 1 304 891 274 135 0 223 22
2 301 307 83 3 305 .1019607843137254 .1019607843137254 .1019607843137254 81 1 22
3 937 221 135 304 0 219 226 308 81 1 222 890 274 218 0 219 309 304 310 83 3 307
 .1019607843137254 .1019607843137254 .1019607843137254 81 1 309 889 274 34 0 226
 0 222 311 83 3 310 .1019607843137254 .1019607843137254 .1019607843137254 81 1 2
26 938 221 34 309 0 223 231 312 83 3 311 .1019607843137254 .1019607843137254 .10
19607843137254 82 1 312 1213530635 82 1 308 1212088843 82 1 306 1212219915 82 1
 303 1212350987 82 1 300 1212482059 82 1 297 1212613131 82 1 294 1212744203 82 1
 291 1212875275 82 1 288 1213006347 82 1 285 1213137419 82 1 282 1213268491 79 2
55 15 276 SDL/TYSA_COLOUR79 14 273 SWEntUnchanged82 1 269 1193017867 82 1 266 12
13399563 15 262 242 0 214 259 0 17 214 0 262 106 65 60 169 167 0 166 -17 106 0 2
62 313 214 100 62 213 0 314 -17 65 0 262 214 313 63 111 212 0 315 +17 169 0 216
 172 166 63 214 167 0 0 +17 172 0 216 175 169 66 315 170 0 0 +17 175 0 216 178 1
72 69 316 173 0 0 +17 315 0 260 111 68 63 172 170 0 169 -15 260 240 0 315 255 0
 17 111 0 260 317 315 107 65 212 0 318 -17 68 0 260 315 317 66 114 210 0 316 +17
 317 0 260 68 111 112 318 319 0 0 +17 114 0 256 320 316 112 68 210 0 321 -17 316
 0 256 114 71 66 175 173 0 172 -15 256 238 0 316 251 0 17 71 0 256 316 320 69 11
7 208 0 322 +17 320 0 256 71 114 115 321 323 0 0 +17 117 0 252 324 322 115 71 20
8 0 325 -17 322 0 252 117 74 69 178 176 0 175 -15 252 236 0 322 247 0 17 74 0 25
2 322 324 72 120 206 0 326 +17 178 0 216 181 175 72 322 176 0 0 +17 181 0 216 18
4 178 75 326 179 0 0 +17 184 0 216 187 181 78 327 182 0 0 +17 326 0 248 120 77 7
2 181 179 0 178 -15 248 234 0 326 243 0 17 120 0 248 328 326 118 74 206 0 329 -1
7 77 0 248 326 328 75 123 204 0 327 +17 328 0 248 77 120 121 329 330 0 0 +17 123
 0 244 331 327 121 77 204 0 332 -17 327 0 244 123 80 75 184 182 0 181 -15 244 23
2 0 327 239 0 17 80 0 244 327 331 78 126 202 0 333 +17 331 0 244 80 123 124 332
 334 0 0 +17 126 0 240 335 333 124 80 202 0 336 -17 333 0 240 126 83 78 187 185
 0 184 -15 240 230 0 333 235 0 17 83 0 240 333 335 81 129 200 0 337 +17 187 0 21
6 190 184 81 333 185 0 0 +17 190 0 216 139 187 84 337 188 0 0 +17 139 0 216 94 1
90 87 141 191 0 0 +17 337 0 236 129 86 81 190 188 0 187 -15 236 228 0 337 232 0
 17 129 0 236 150 337 127 83 200 0 148 -17 86 0 236 337 150 84 131 143 0 141 +17
 150 0 236 86 129 130 148 154 0 0 +17 141 0 140 131 88 84 139 191 0 190 -17 148
 0 145 336 146 127 150 154 0 335 -17 336 0 145 332 148 124 335 156 0 331 -17 335
 0 240 83 126 127 336 156 0 0 +16 156 28 0 ?335 154 334 158 0 0 12 16 334 25 0 ?
331 156 330 338 0 0 12 30 158 29 0 156 338 157 0 +.007 .0053 -.0277 1 0 0 31 338
 26 0 334 339 158 0 +.0062 .0052 -.0277 0 0 -1 -1 0 0 1e-4 30 339 23 0 330 340 3
38 0 +.0061 .0052 -.0277 546959992473125e-29 1 0 16 330 22 0 ?328 334 341 339 0
 0 12 30 340 20 0 341 342 339 0 +.00493786796564404 .00620355339059327 -.0277 .7
07106781186548 -.707106781186547 0 16 341 19 0 ?324 330 323 340 0 0 12 31 342 17
 0 323 343 340 0 +.00515 .00641568542494924 -.0277 0 0 1 1 0 0 3e-4 16 323 16 0
 ?320 341 319 342 0 0 12 30 343 14 0 319 344 342 0 +.00485 .0082 -.0277 48610359
9733093e-30 -1 0 16 319 13 0 ?317 323 345 343 0 0 12 31 344 11 0 345 346 343 0 +
.00495 .0082 -.0277 0 0 1 -1 0 0 1e-4 16 345 10 0 ?313 319 347 344 0 0 12 30 346
 8 0 347 348 344 0 +.00495 .0083 -.0277 -1 2195852501236465e-31 0 16 347 7 0 ?10
3 345 196 346 0 0 12 31 348 5 0 196 0 346 0 +.01285 .00815 -.0277 0 0 1 -1 0 0 1
5e-5 16 196 4 0 ?49 347 194 348 0 0 12 17 103 0 102 62 99 100 105 347 0 0 +17 10
5 0 145 51 314 95 103 347 0 49 -17 51 0 145 137 105 30 49 196 0 98 -17 314 0 145
 105 318 100 313 345 0 103 -17 318 0 145 314 321 107 317 319 0 313 -17 313 0 262
 65 106 107 314 345 0 0 +17 321 0 145 318 325 112 320 323 0 317 -17 325 0 145 32
1 329 115 324 341 0 320 -17 329 0 145 325 332 118 328 330 0 324 -17 324 0 252 74
 117 118 325 341 0 0 +17 332 0 145 329 336 121 331 334 0 328 -82 1 224 121195777
1 19 35 275 0 12 0 28 24 S0 74 4 CI16 index_map_offset0 0 1 dCCZ20 33 4 0 0 268
 32 270 21 0 0 0 0 0 0 0 0 0 0 0 0 0 0 0 0 81 2 32 358 349 12 0 21 0 0 350 0 80
 2 349 351 352 8004 0 0 0 0 3 5 0 0 0 FFTFFFFFFFFFFF2 3 83 1 350 952 79 16 352 S
DL/TYSA_DENSITY80 1 31 353 354 8017 0 0 0 0 0 0 0 0 0 TTTTTTTTTTTTTF3 79 13 354
 SDL/TYSA_NAME81 1 10 951 31 7 355 0 0 0 0 70 11 0 4 T7 0 0 4 20 1 356 356 13 13
 274 0 7 0 357 0 0 358 0 51 14 260 0 357 359 0 0 +-.00515 .00641568542494924 -.0
277 0 0 1 3e-4 1 0 0 30 15 273 0 360 361 0 0 +-.00485 .00641568542494923 -.0277
 0 0 1 29 16 196 0 362 363 0 -.00493786796564404 .00620355339059327 .0277 19 17
 82 0 7 358 0 364 V0 16 18 209 0 ?365 0 366 367 0 0 7 18 19 79 0 368 0 369 370 ?
7 17 368 0 371 372 373 19 365 18 0 374 -18 369 76 0 375 19 376 377 ?7 29 370 81
 0 19 377 378 -.00493786796564404 .00620355339059327 -.0277 29 377 78 0 369 379
 370 -.0061 .00504142135623731 -.0277 29 378 208 0 380 370 381 -.00485 .00641568
542494923 .0277 18 380 181 0 382 383 0 378 ?7 29 381 207 0 383 378 384 -.00485 .
0082 .0277 18 383 180 0 385 386 380 381 ?7 29 384 206 0 386 381 387 -.00495 .008
3 .0277 18 386 179 0 388 389 383 384 ?7 29 387 205 0 389 384 390 -.01285 .0083 .
0277 18 389 178 0 391 392 386 387 ?7 29 390 204 0 392 387 393 -.013 .00815 .0277
 18 392 177 0 394 395 389 390 ?7 29 393 203 0 395 390 396 -.013 .0043 .0277 18 3
95 176 0 397 398 392 393 ?7 29 396 202 0 398 393 399 -.0071 .0043 .0277 18 398 1
75 0 400 401 395 396 ?7 29 399 201 0 401 396 402 -.0071 .0052 .0277 18 401 174 0
 403 404 398 399 ?7 29 402 200 0 404 399 405 -.007 .0053 .0277 18 404 173 0 406
 407 401 402 ?7 29 405 199 0 407 402 408 -.0062 .0053 .0277 18 407 172 0 409 410
 404 405 ?7 29 408 198 0 410 405 363 -.0061 .0052 .0277 18 410 171 0 411 412 407
 408 ?7 29 363 197 0 412 408 16 -.0061 .00504142135623731 .0277 18 412 170 0 413
 362 410 363 ?7 17 413 0 414 415 416 412 375 366 0 417 +18 362 169 0 365 418 412
 16 ?7 17 365 0 419 420 421 362 368 18 0 373 +18 418 43 0 422 423 362 424 ?7 17
 422 0 425 426 427 418 382 360 0 428 -18 423 46 0 429 430 418 431 ?7 29 424 45 0
 418 0 431 -.00485 .00641568542494923 -.0277 29 431 48 0 423 424 432 -.00485 .00
82 -.0277 29 432 51 0 430 431 433 -.00495 .0083 -.0277 18 430 49 0 434 435 423 4
32 ?7 29 433 54 0 435 432 436 -.01285 .0083 -.0277 18 435 52 0 437 438 430 433 ?
7 29 436 57 0 438 433 439 -.013 .00815 -.0277 18 438 55 0 440 441 435 436 ?7 29
 439 60 0 441 436 442 -.013 .0043 -.0277 18 441 58 0 443 444 438 439 ?7 29 442 6
3 0 444 439 445 -.0071 .0043 -.0277 18 444 61 0 446 447 441 442 ?7 29 445 66 0 4
47 442 448 -.0071 .0052 -.0277 18 447 64 0 449 450 444 445 ?7 29 448 69 0 450 44
5 451 -.007 .0053 -.0277 18 450 67 0 452 453 447 448 ?7 29 451 72 0 453 448 379
 -.0062 .0053 -.0277 18 453 70 0 454 376 450 451 ?7 29 379 75 0 376 451 377 -.00
61 .0052 -.0277 18 376 73 0 455 369 453 379 ?7 17 455 0 414 416 415 376 411 456
 0 457 -15 414 224 0 415 458 0 17 416 0 414 413 455 369 457 459 0 460 +17 415 0
 414 455 413 410 417 461 0 462 -17 411 0 463 464 465 410 455 456 0 415 +16 456 2
11 0 ?411 366 466 467 0 0 7 17 457 0 468 469 460 376 416 459 0 465 -15 468 3 0 3
74 470 0 17 469 0 468 471 457 453 465 472 0 473 -17 460 0 468 457 374 369 421 47
4 0 0 -16 459 37 0 ?416 474 472 475 0 0 7 17 465 0 463 411 454 376 469 472 0 0 +
15 463 226 0 464 476 0 17 454 0 463 465 464 453 409 466 0 469 -16 472 34 0 ?465
 459 477 478 0 0 7 16 477 31 0 ?473 472 479 480 0 0 7 31 478 35 0 472 480 475 0
 +-.0062 .0052 -.0277 0 0 -1 1 0 0 1e-4 30 480 32 0 477 481 478 0 +-.007 .0053 -
.0277 1 0 0 30 475 38 0 459 478 482 0 +-.0061 .0052 -.0277 546959992473125e-29 -
1 0 30 482 41 0 474 475 483 0 +-.00493786796564404 .00620355339059327 -.0277 .70
7106781186548 .707106781186547 0 16 474 40 0 ?421 360 459 482 0 0 7 31 483 195 0
 484 482 485 0 +-.00515 .00641568542494924 .0277 0 0 1 -1 0 0 3e-4 16 484 165 0
 ?486 487 0 483 0 0 7 30 485 194 0 487 483 488 0 +-.00485 .0082 .0277 4861035997
33093e-30 1 0 16 487 161 0 ?489 490 484 485 0 0 7 31 488 193 0 490 485 491 0 +-.
00495 .0082 .0277 0 0 1 1 0 0 1e-4 16 490 157 0 ?492 493 487 488 0 0 7 30 491 19
2 0 493 488 494 0 +-.00495 .0083 .0277 -1 -2195852501236465e-31 0 16 493 153 0 ?
495 496 490 491 0 0 7 31 494 191 0 496 491 497 0 +-.01285 .00815 .0277 0 0 1 1 0
 0 15e-5 16 496 149 0 ?498 499 493 494 0 0 7 30 497 190 0 499 494 500 0 +-.013 .
00815 .0277 -901155052455485e-30 -1 0 16 499 145 0 ?501 502 496 497 0 0 7 30 500
 189 0 502 497 503 0 +-.0071 .0043 .0277 1 0 0 16 502 141 0 ?504 505 499 500 0 0
 7 30 503 188 0 505 500 506 0 +-.0071 .0043 .0277 0 1 0 16 505 137 0 ?507 508 50
2 503 0 0 7 31 506 187 0 508 503 509 0 +-.007 .0052 .0277 0 0 -1 1 0 0 1e-4 16 5
08 133 0 ?510 511 505 506 0 0 7 30 509 186 0 511 506 512 0 +-.007 .0053 .0277 1
 0 0 16 511 129 0 ?513 514 508 509 0 0 7 31 512 185 0 514 509 515 0 +-.0062 .005
2 .0277 0 0 -1 1 0 0 1e-4 16 514 125 0 ?462 461 511 512 0 0 7 30 515 184 0 461 5
12 516 0 +-.0061 .0052 .0277 546959992473125e-29 -1 0 16 461 121 0 ?417 517 514
 515 0 0 7 30 516 183 0 517 515 367 0 +-.00493786796564404 .00620355339059327 .0
277 .707106781186548 .707106781186547 0 16 517 117 0 ?518 519 461 516 0 0 7 30 3
67 261 0 18 516 520 0 +-.00493786796564404 .00620355339059327 -.0277 0 0 1 30 52
0 262 0 366 367 467 0 +-.0061 .00504142135623731 -.0277 0 0 1 16 366 210 0 ?413
 18 456 520 0 0 7 30 467 263 0 456 520 521 0 +-.0061 .0052 -.0277 0 0 1 30 521 2
64 0 466 467 522 0 +-.0062 .0053 -.0277 0 0 1 16 466 212 0 ?409 456 523 521 0 0
 7 30 522 265 0 523 521 524 0 +-.007 .0053 -.0277 0 0 1 16 523 213 0 ?406 466 52
5 522 0 0 7 30 524 266 0 525 522 526 0 +-.0071 .0052 -.0277 0 0 1 16 525 214 0 ?
403 523 527 524 0 0 7 30 526 267 0 527 524 528 0 +-.0071 .0043 -.0277 0 0 1 16 5
27 215 0 ?400 525 529 526 0 0 7 30 528 268 0 529 526 530 0 +-.013 .0043 -.0277 0
 0 1 16 529 216 0 ?397 527 531 528 0 0 7 30 530 269 0 531 528 532 0 +-.013 .0081
5 -.0277 0 0 1 16 531 217 0 ?394 529 533 530 0 0 7 30 532 270 0 533 530 534 0 +-
.01285 .0083 -.0277 0 0 1 16 533 218 0 ?391 531 535 532 0 0 7 30 534 271 0 535 5
32 361 0 +-.00495 .0083 -.0277 0 0 1 16 535 219 0 ?388 533 536 534 0 0 7 30 361
 272 0 536 534 15 0 +-.00485 .0082 -.0277 0 0 1 16 536 220 0 ?385 535 360 361 0
 0 7 17 385 0 425 427 426 383 429 536 0 537 +16 360 221 0 ?382 536 474 15 0 0 7
 17 382 0 371 373 372 380 422 360 0 427 +15 371 246 0 373 357 0 17 373 0 371 368
 382 362 486 484 0 518 -17 372 0 371 382 368 418 374 519 0 0 +17 427 0 425 422 3
85 380 489 487 0 486 -15 425 244 0 427 538 0 17 489 0 539 492 486 383 427 487 0
 0 +17 486 0 539 489 518 380 373 484 0 0 +15 539 116 0 486 540 0 17 518 0 539 48
6 417 362 420 517 0 0 +17 417 0 539 518 462 412 415 461 0 420 +17 420 0 419 375
 365 412 518 517 0 0 -15 419 222 0 420 541 0 17 375 0 419 421 420 369 413 366 0
 416 -17 421 0 419 365 375 19 460 474 0 0 +14 541 223 542 ?458 357 419 13 543 +0
 0 458 357 364 81 1 542 936 221 541 544 0 0 545 546 14 458 225 545 ?476 541 414
 13 547 +0 0 476 541 364 14 357 247 548 ?541 0 371 13 14 +0 0 541 0 364 50 543 2
48 0 541 549 547 0 +-.00493786796564404 .00620355339059327 -.0277 .7071067811865
47 -.707106781186548 0 .707106781186548 .707106781186547 0 13 364 83 0 0 0 0 0 0
 17 357 50 549 182 0 540 550 543 0 +-.00515 .00641568542494924 .0277 0 0 -1 -1 0
 0 50 547 249 0 458 543 551 0 +-.0061 .0052 -.0277 -1 -546959992473125e-29 0 546
959992473125e-29 -1 0 51 551 250 0 476 547 552 0 --.0062 .0052 -.0277 0 0 1 1e-4
 1 0 0 14 476 227 553 ?554 458 463 13 551 +0 0 554 458 364 50 552 251 0 554 551
 555 0 +-.007 .0053 -.0277 0 -1 0 0 0 -1 14 554 229 556 ?557 476 558 13 552 +0 0
 557 476 364 51 555 252 0 557 552 559 0 --.007 .0052 -.0277 0 0 1 1e-4 1 0 0 14
 557 231 560 ?561 554 562 13 555 +0 0 561 554 364 50 559 253 0 561 555 563 0 +-.
0071 .0043 -.0277 1 0 0 0 0 -1 14 561 233 564 ?565 557 566 13 559 +0 0 565 557 3
64 50 563 254 0 565 559 567 0 +-.0071 .0043 -.0277 0 -1 0 0 0 -1 14 565 235 568
 ?569 561 570 13 563 +0 0 569 561 364 50 567 255 0 569 563 571 0 +-.013 .00815 -
.0277 -1 901155052455485e-30 0 -901155052455485e-30 -1 0 14 569 237 572 ?573 565
 574 13 567 +0 0 573 565 364 51 571 256 0 573 567 575 0 +-.01285 .00815 -.0277 0
 0 1 15e-5 1 0 0 14 573 239 576 ?577 569 578 13 571 +0 0 577 569 364 50 575 257
 0 577 571 579 0 +-.00495 .0083 -.0277 -2195852501236465e-31 1 0 -1 -21958525012
36465e-31 0 14 577 241 580 ?581 573 582 13 575 +0 0 581 573 364 51 579 258 0 581
 575 359 0 +-.00495 .0082 -.0277 0 0 1 1e-4 1 0 0 14 581 243 583 ?538 577 584 13
 579 +0 0 538 577 364 50 359 259 0 538 579 14 0 +-.00485 .0082 -.0277 1 -4861035
99733093e-30 0 486103599733093e-30 1 0 14 538 245 585 ?470 581 425 13 359 +0 0 4
70 581 364 81 1 585 948 221 538 586 0 583 587 588 14 470 1 587 ?540 538 468 13 5
50 +0 0 540 538 364 81 1 587 949 221 470 589 0 585 590 591 14 540 115 590 ?0 470
 539 13 549 -0 0 0 470 364 50 550 2 0 470 0 549 0 +-.00515 .00641568542494924 -.
0277 0 0 -1 -1 0 0 81 1 590 950 221 540 592 0 587 0 593 81 1 592 903 274 540 0 5
90 589 0 594 82 1 593 1240531467 81 1 589 902 274 470 0 587 586 592 595 83 3 594
 .1019607843137254 .1019607843137254 .1019607843137254 81 1 586 901 274 538 0 58
5 596 589 597 83 3 595 .1019607843137254 .1019607843137254 .1019607843137254 81
 1 596 900 274 581 0 583 598 586 599 83 3 597 .1019607843137254 .101960784313725
4 .1019607843137254 81 1 583 947 221 581 596 0 580 585 600 81 1 598 899 274 577
 0 580 601 596 602 83 3 599 .1019607843137254 .1019607843137254 .101960784313725
4 81 1 580 946 221 577 598 0 576 583 603 81 1 601 898 274 573 0 576 604 598 605
 83 3 602 .1019607843137254 .1019607843137254 .1019607843137254 81 1 576 945 221
 573 601 0 572 580 606 81 1 604 897 274 569 0 572 607 601 608 83 3 605 .10196078
43137254 .1019607843137254 .1019607843137254 81 1 572 944 221 569 604 0 568 576
 609 81 1 607 896 274 565 0 568 610 604 611 83 3 608 .1019607843137254 .10196078
43137254 .1019607843137254 81 1 568 943 221 565 607 0 564 572 612 81 1 610 895 2
74 561 0 564 613 607 614 83 3 611 .1019607843137254 .1019607843137254 .101960784
3137254 81 1 564 942 221 561 610 0 560 568 615 81 1 613 894 274 557 0 560 616 61
0 617 83 3 614 .1019607843137254 .1019607843137254 .1019607843137254 81 1 560 94
1 221 557 613 0 556 564 618 81 1 616 893 274 554 0 556 619 613 620 83 3 617 .101
9607843137254 .1019607843137254 .1019607843137254 81 1 556 940 221 554 616 0 553
 560 621 81 1 619 892 274 476 0 553 622 616 623 83 3 620 .1019607843137254 .1019
607843137254 .1019607843137254 81 1 553 939 221 476 619 0 548 556 624 81 1 622 8
91 274 458 0 545 544 619 625 83 3 623 .1019607843137254 .1019607843137254 .10196
07843137254 81 1 545 937 221 458 622 0 542 548 626 81 1 544 890 274 541 0 542 62
7 622 628 83 3 625 .1019607843137254 .1019607843137254 .1019607843137254 81 1 62
7 889 274 357 0 548 0 544 629 83 3 628 .1019607843137254 .1019607843137254 .1019
607843137254 81 1 548 938 221 357 627 0 545 553 630 83 3 629 .1019607843137254 .
1019607843137254 .1019607843137254 82 1 630 1244791307 82 1 626 1243349515 82 1
 624 1243480587 82 1 621 1243611659 82 1 618 1243742731 82 1 615 1243873803 82 1
 612 1244004875 82 1 609 1244135947 82 1 606 1244267019 82 1 603 1244398091 82 1
 600 1244529163 82 1 591 1224278539 82 1 588 1244660235 15 584 242 0 537 581 0 1
7 537 0 584 429 388 383 492 490 0 489 -17 429 0 584 631 537 423 385 536 0 632 -1
7 388 0 584 537 631 386 434 535 0 633 +17 492 0 539 495 489 386 537 490 0 0 +17
 495 0 539 498 492 389 633 493 0 0 +17 498 0 539 501 495 392 634 496 0 0 +17 633
 0 582 434 391 386 495 493 0 492 -15 582 240 0 633 577 0 17 434 0 582 635 633 43
0 388 535 0 636 -17 391 0 582 633 635 389 437 533 0 634 +17 635 0 582 391 434 43
5 636 637 0 0 +17 437 0 578 638 634 435 391 533 0 639 -17 634 0 578 437 394 389
 498 496 0 495 -15 578 238 0 634 573 0 17 394 0 578 634 638 392 440 531 0 640 +1
7 638 0 578 394 437 438 639 641 0 0 +17 440 0 574 642 640 438 394 531 0 643 -17
 640 0 574 440 397 392 501 499 0 498 -15 574 236 0 640 569 0 17 397 0 574 640 64
2 395 443 529 0 644 +17 501 0 539 504 498 395 640 499 0 0 +17 504 0 539 507 501
 398 644 502 0 0 +17 507 0 539 510 504 401 645 505 0 0 +17 644 0 570 443 400 395
 504 502 0 501 -15 570 234 0 644 565 0 17 443 0 570 646 644 441 397 529 0 647 -1
7 400 0 570 644 646 398 446 527 0 645 +17 646 0 570 400 443 444 647 648 0 0 +17
 446 0 566 649 645 444 400 527 0 650 -17 645 0 566 446 403 398 507 505 0 504 -15
 566 232 0 645 561 0 17 403 0 566 645 649 401 449 525 0 651 +17 649 0 566 403 44
6 447 650 652 0 0 +17 449 0 562 653 651 447 403 525 0 654 -17 651 0 562 449 406
 401 510 508 0 507 -15 562 230 0 651 557 0 17 406 0 562 651 653 404 452 523 0 65
5 +17 510 0 539 513 507 404 651 508 0 0 +17 513 0 539 462 510 407 655 511 0 0 +1
7 462 0 539 417 513 410 464 514 0 0 +17 655 0 558 452 409 404 513 511 0 510 -15
 558 228 0 655 554 0 17 452 0 558 473 655 450 406 523 0 471 -17 409 0 558 655 47
3 407 454 466 0 464 +17 473 0 558 409 452 453 471 477 0 0 +17 464 0 463 454 411
 407 462 514 0 513 -17 471 0 468 654 469 450 473 477 0 653 -17 654 0 468 650 471
 447 653 479 0 649 -17 653 0 562 406 449 450 654 479 0 0 +16 479 28 0 ?653 477 6
52 481 0 0 7 16 652 25 0 ?649 479 648 656 0 0 7 31 481 29 0 479 656 480 0 +-.007
 .0052 -.0277 0 0 -1 1 0 0 1e-4 30 656 26 0 652 657 481 0 +-.0071 .0043 -.0277 0
 1 0 30 657 23 0 648 658 656 0 +-.0071 .0043 -.0277 1 0 0 16 648 22 0 ?646 652 6
59 657 0 0 7 30 658 20 0 659 660 657 0 +-.013 .00815 -.0277 -901155052455485e-30
 -1 0 16 659 19 0 ?642 648 641 658 0 0 7 31 660 17 0 641 661 658 0 +-.01285 .008
15 -.0277 0 0 1 1 0 0 15e-5 16 641 16 0 ?638 659 637 660 0 0 7 30 661 14 0 637 6
62 660 0 +-.00495 .0083 -.0277 -1 -2195852501236465e-31 0 16 637 13 0 ?635 641 6
63 661 0 0 7 31 662 11 0 663 664 661 0 +-.00495 .0082 -.0277 0 0 1 1 0 0 1e-4 16
 663 10 0 ?631 637 665 662 0 0 7 30 664 8 0 665 666 662 0 +-.00485 .0082 -.0277
 486103599733093e-30 1 0 16 665 7 0 ?426 663 519 664 0 0 7 31 666 5 0 519 0 664
 0 +-.00515 .00641568542494924 -.0277 0 0 1 -1 0 0 3e-4 16 519 4 0 ?372 665 517
 666 0 0 7 17 426 0 425 385 422 423 428 665 0 0 +17 428 0 468 374 632 418 426 66
5 0 372 -17 374 0 468 460 428 19 372 519 0 421 -17 632 0 468 428 636 423 631 663
 0 426 -17 636 0 468 632 639 430 635 637 0 631 -17 631 0 584 388 429 430 632 663
 0 0 +17 639 0 468 636 643 435 638 641 0 635 -17 643 0 468 639 647 438 642 659 0
 638 -17 647 0 468 643 650 441 646 648 0 642 -17 642 0 574 397 440 441 643 659 0
 0 +17 650 0 468 647 654 444 649 652 0 646 -82 1 546 1243218443 19 358 275 0 7 0
 17 13 S0 74 20 356 4 0 0 590 355 592 10 0 0 0 0 0 0 0 0 0 0 0 0 0 0 0 0 81 2 35
5 358 349 7 0 10 0 0 667 0 83 1 667 952 74 20 6 1 0 0 2 0 0 0 0 0 0 0 0 0 0 0 0
 0 0 0 0 0 0 0 80 2 5 668 669 9000 0 0 0 0 3 5 0 0 0 TFFFFFFFFFFFFF9 1 79 18 669
 MULTI_BODY_ID_20011 0 
